<svg width="25" height="24" viewBox="0 0 25 24" fill="#FFF" xmlns="http://www.w3.org/2000/svg">
<path fill-rule="evenodd" clip-rule="evenodd" d="M24.9495 12.0005C24.9495 18.6279 19.5708 24.0005 12.9359 24.0005C6.57419 24.0005 1.36738 19.0612 0.949463 12.8123C1.2549 12.9343 1.58255 13.0005 1.92347 13.0005C1.93846 13.0005 1.95342 13.0004 1.96836 13.0001C2.47397 18.6068 7.19126 23.0005 12.9359 23.0005C19.0179 23.0005 23.9483 18.0757 23.9483 12.0005C23.9483 5.92537 19.0179 1.00049 12.9359 1.00049C9.07011 1.00049 5.66955 2.99017 3.70461 6.00024H4.97473V7.00024H2.97473H1.97473V6.00024V4.00024H2.97473V5.29029C5.13373 2.09877 8.78952 0.000488281 12.9359 0.000488281C19.5708 0.000488281 24.9495 5.37308 24.9495 12.0005ZM12.0223 13.5563L12.0521 13.6382L11.1124 13.9802L11.0223 13.7326L11 13.7366L10.9777 13.61L9.06031 8.34205L10 8.00003L11.675 12.6021L18.7048 11.3626L18.8785 12.3474L12.0223 13.5563Z" fill="#23202C"/>
</svg>
