<svg width="25" height="25" viewBox="0 0 25 25" fill="none" xmlns="http://www.w3.org/2000/svg">
<path fill-rule="evenodd" clip-rule="evenodd" d="M12.4798 0.0597953C12.4174 0.0233626 12.3403 0.0233625 12.2779 0.0597952L0.497011 6.94459C0.320828 7.04755 0.39386 7.31726 0.597923 7.31726H24.1598C24.3638 7.31726 24.4369 7.04755 24.2607 6.94459L12.4798 0.0597953ZM22.2048 7.80503C22.4809 7.80503 22.7048 8.02888 22.7048 8.30503V23.5332C22.7048 23.8093 22.4809 24.0332 22.2048 24.0332H15.4601C15.184 24.0332 14.9601 23.8093 14.9601 23.5332V13.7146C14.9601 13.4384 14.7363 13.2146 14.4601 13.2146H10.2972C10.021 13.2146 9.79716 13.4384 9.79716 13.7146V23.5332C9.79716 23.8093 9.5733 24.0332 9.29716 24.0332H2.5529C2.27676 24.0332 2.0529 23.8093 2.0529 23.5332V8.30503C2.0529 8.02888 2.27676 7.80503 2.5529 7.80503H22.2048Z" fill="#FEFEFF"/>
</svg>
