<svg width="24" height="24" viewBox="0 0 24 24" fill="none" xmlns="http://www.w3.org/2000/svg">
<path fill-rule="evenodd" clip-rule="evenodd" d="M0 0H24V24H0V0ZM1.09091 2H22.9091V10H21.8182V3H20.8182V10H18.5455V3H17.5455V10H15.2727V3H14.2727V10H12V3H11V10H8.72727V3H7.72727V10H5.45455L6.42192 9.74664L4.2401 2.74664L3.27273 3H2.27273V10H1.09091V2ZM3.27273 3L5.45455 10H3.27273V3ZM1.09091 12V13.5032L1.96691 13.211L4.5787 19.7888L3.94574 20H5.54545V13H6.54545V20H8.81818V13H9.81818V20H12.0909V13H13.0909V20H18.6364V13H19.6364V20H20.8182V13H21.8182V20H22.9091V12H1.09091ZM3.58829 20L1.09091 13.7103V20H3.58829ZM14.1818 19.5778L16.7936 13L17.7422 13.3165L15.1304 19.8943L14.1818 19.5778Z" fill="#FEFEFF"/>
</svg>
