<svg width="20" height="25" viewBox="0 0 20 25" fill="none" xmlns="http://www.w3.org/2000/svg">
<path d="M0.799561 16.494C0.799561 21.0571 4.28767 24.0955 9.51986 24.0955C15.4102 24.0955 19.348 20.1247 19.348 14.1466C19.348 4.21973 10.88 0.095459 5.12133 0.095459C3.96956 0.095459 3.2237 0.501315 3.2237 1.30203C3.2237 1.60914 3.3553 1.93824 3.59666 2.21245C4.87998 3.75907 6.1853 5.547 6.2182 7.64208C6.2182 7.83949 6.2182 8.02599 6.1963 8.22344C5.58199 7.07168 4.55092 6.24901 3.49791 6.24901C2.9714 6.24901 2.59844 6.63292 2.59844 7.21428C2.59844 7.48848 2.68624 8.16859 2.68624 8.64025C2.68624 10.9327 0.799561 12.4794 0.799561 16.494ZM2.62039 16.494C2.62039 13.0936 4.49607 11.6787 4.58382 8.53055C5.20904 9.32031 5.65879 10.2746 5.81235 11.6458C5.83429 11.8651 5.96594 11.9529 6.16335 11.9529C7.20542 11.9529 7.80873 9.30936 7.80873 7.64208C7.80873 5.5031 6.89831 3.26546 5.48329 1.82854C12.9861 2.43185 17.4614 7.53238 17.4614 14.0698C17.4614 19.0059 14.3352 22.2856 9.66246 22.2856C5.42844 22.2856 2.62039 19.9711 2.62039 16.494ZM9.81601 21.0132C12.5034 21.0132 13.8197 19.0388 13.8197 16.8011C13.8197 14.5854 12.5473 12.1174 10.0464 10.9656C9.94766 10.9218 9.88181 10.9766 9.89281 11.0863C10.0354 12.9839 9.92571 14.4976 9.35535 15.4958C9.2895 15.5946 9.21275 15.5836 9.16885 15.4739C8.9056 14.8158 8.57654 14.2563 8.06098 13.7956C7.97323 13.7188 7.90743 13.7518 7.89643 13.8614C7.70998 15.1339 6.295 15.8468 6.295 17.8432C6.295 19.7408 7.69902 21.0132 9.81601 21.0132Z" fill="#FEFEFF"/>
</svg>
