<svg width="11" height="14" viewBox="0 0 11 14" fill="none" xmlns="http://www.w3.org/2000/svg">
<path fill-rule="evenodd" clip-rule="evenodd" d="M2.89714 1.25012C0.744823 2.49276 0.00738525 5.24491 1.25003 7.39723C2.09425 8.85947 3.6352 9.66866 5.21144 9.64758C6.23087 9.63395 7.33618 9.93876 7.84594 10.8217L9.21413 13.1915C9.3522 13.4306 9.65799 13.5125 9.89714 13.3745C10.1363 13.2364 10.2182 12.9306 10.0802 12.6915L8.71197 10.3217C8.20221 9.43876 8.49088 8.32913 9.01241 7.45309C9.81879 6.09857 9.88848 4.35947 9.04425 2.89723C7.80161 0.744914 5.04946 0.00747609 2.89714 1.25012ZM6.89708 8.17826C8.57111 7.21176 9.14467 5.0712 8.17817 3.39717C7.21167 1.72315 5.07111 1.14959 3.39708 2.11608C1.72306 3.08258 1.14949 5.22315 2.11599 6.89717C3.08249 8.5712 5.22306 9.14476 6.89708 8.17826Z" fill="#808B8E"/>
</svg>
