<svg width="15" height="17" viewBox="0 0 15 17" fill="none" xmlns="http://www.w3.org/2000/svg">
<path fill-rule="evenodd" clip-rule="evenodd" d="M2.25 8.39711C1.00736 6.2448 1.7448 3.49264 3.89711 2.25C6.04943 1.00736 8.80159 1.7448 10.0442 3.89711C10.8885 5.35935 10.8188 7.09845 10.0124 8.45297C9.49086 9.32901 9.20218 10.4386 9.71194 11.3216L11.0801 13.6913C11.2182 13.9305 11.1363 14.2363 10.8971 14.3744V14.3744C10.658 14.5124 10.3522 14.4305 10.2141 14.1913L8.84592 11.8216C8.33615 10.9386 7.23085 10.6338 6.21141 10.6475C4.63517 10.6685 3.09422 9.85935 2.25 8.39711Z" fill="#23202C"/>
<circle cx="6.14706" cy="6.14706" r="3.5" transform="rotate(-30 6.14706 6.14706)" fill="#FEFEFF"/>
</svg>
