<svg width="95" height="35" viewBox="0 0 95 35" fill="none" xmlns="http://www.w3.org/2000/svg">
<path d="M48.24 28.9614H45.328L45.184 24.8174L45.168 24.1294C45.1467 23.4894 45.136 23.0041 45.136 22.6734C45.136 21.8734 45.168 21.0734 45.232 20.2734L43.712 27.8094H40.912L39.296 20.2734C39.392 21.5214 39.44 22.6201 39.44 23.5694C39.44 24.1134 39.4347 24.5294 39.424 24.8174L39.296 28.9614H36.384L37.2 17.8414H40.88L42.368 25.2174L43.712 17.8414H47.408L48.24 28.9614ZM57.185 24.5614C57.185 24.6254 57.169 24.9454 57.137 25.5214H51.921C51.9957 26.1721 52.177 26.6201 52.465 26.8654C52.7637 27.1001 53.185 27.2174 53.729 27.2174C54.049 27.2174 54.3637 27.1588 54.673 27.0414C54.993 26.9134 55.3397 26.7214 55.713 26.4654L56.865 28.0334C56.417 28.4068 55.905 28.7054 55.329 28.9294C54.753 29.1428 54.129 29.2494 53.457 29.2494C52.0063 29.2494 50.9023 28.8441 50.145 28.0334C49.3983 27.2121 49.025 26.1134 49.025 24.7374C49.025 23.8734 49.1797 23.0948 49.489 22.4014C49.809 21.7081 50.2783 21.1588 50.897 20.7534C51.5157 20.3481 52.2623 20.1454 53.137 20.1454C54.385 20.1454 55.3717 20.5348 56.097 21.3134C56.8223 22.0814 57.185 23.1641 57.185 24.5614ZM54.385 23.7614C54.3743 23.1961 54.2783 22.7588 54.097 22.4494C53.9157 22.1401 53.6117 21.9854 53.185 21.9854C52.7903 21.9854 52.4917 22.1241 52.289 22.4014C52.0863 22.6788 51.9583 23.1641 51.905 23.8574H54.385V23.7614ZM66.284 17.8414L65.98 20.0974H63.356V28.9614H60.396V20.0974H57.612V17.8414H66.284ZM73.8814 28.9614H71.4014L71.2894 27.9534C70.692 28.8174 69.844 29.2494 68.7454 29.2494C67.956 29.2494 67.3587 29.0148 66.9534 28.5454C66.5587 28.0654 66.3614 27.4041 66.3614 26.5614V20.4334H69.2094V26.1934C69.2094 26.5561 69.2627 26.8121 69.3694 26.9614C69.4867 27.1001 69.6574 27.1694 69.8814 27.1694C70.084 27.1694 70.2814 27.1001 70.4734 26.9614C70.676 26.8121 70.8627 26.5988 71.0334 26.3214V20.4334H73.8814V28.9614ZM80.6708 20.1454C81.6841 20.1454 82.4628 20.5454 83.0068 21.3454C83.5508 22.1454 83.8228 23.2654 83.8228 24.7054C83.8228 25.5801 83.6841 26.3641 83.4068 27.0574C83.1401 27.7401 82.7508 28.2788 82.2388 28.6734C81.7268 29.0574 81.1188 29.2494 80.4148 29.2494C79.9454 29.2494 79.5188 29.1534 79.1348 28.9614C78.7614 28.7801 78.4468 28.5188 78.1908 28.1774L78.0788 28.9614H75.5508V17.0734L78.3988 16.7854V21.2654C78.6441 20.9241 78.9694 20.6521 79.3748 20.4494C79.7801 20.2468 80.2121 20.1454 80.6708 20.1454ZM79.5668 27.2014C79.9828 27.2014 80.3028 27.0094 80.5268 26.6254C80.7614 26.2414 80.8788 25.6014 80.8788 24.7054C80.8788 23.7454 80.7721 23.0894 80.5588 22.7374C80.3561 22.3854 80.0628 22.2094 79.6788 22.2094C79.1774 22.2094 78.7508 22.5081 78.3988 23.1054V26.4814C78.6868 26.9614 79.0761 27.2014 79.5668 27.2014ZM92.8413 24.5614C92.8413 24.6254 92.8253 24.9454 92.7933 25.5214H87.5773C87.6519 26.1721 87.8333 26.6201 88.1213 26.8654C88.4199 27.1001 88.8413 27.2174 89.3853 27.2174C89.7053 27.2174 90.0199 27.1588 90.3293 27.0414C90.6493 26.9134 90.9959 26.7214 91.3693 26.4654L92.5213 28.0334C92.0733 28.4068 91.5613 28.7054 90.9853 28.9294C90.4093 29.1428 89.7853 29.2494 89.1133 29.2494C87.6626 29.2494 86.5586 28.8441 85.8013 28.0334C85.0546 27.2121 84.6813 26.1134 84.6813 24.7374C84.6813 23.8734 84.8359 23.0948 85.1453 22.4014C85.4653 21.7081 85.9346 21.1588 86.5533 20.7534C87.1719 20.3481 87.9186 20.1454 88.7933 20.1454C90.0413 20.1454 91.0279 20.5348 91.7533 21.3134C92.4786 22.0814 92.8413 23.1641 92.8413 24.5614ZM90.0413 23.7614C90.0306 23.1961 89.9346 22.7588 89.7533 22.4494C89.5719 22.1401 89.2679 21.9854 88.8413 21.9854C88.4466 21.9854 88.1479 22.1241 87.9453 22.4014C87.7426 22.6788 87.6146 23.1641 87.5613 23.8574H90.0413V23.7614Z" fill="#3C374A"/>
<mask id="path-2-outside-1_110_378" maskUnits="userSpaceOnUse" x="0" y="0" width="32" height="35" fill="black">
<rect fill="white" width="32" height="35"/>
<path fill-rule="evenodd" clip-rule="evenodd" d="M12.8063 7.0212C13.2044 7.60835 12.8798 8.41434 12.2114 8.65195C10.9165 9.1123 9.83905 9.78064 9.09821 10.5833C8.88503 10.8143 8.59344 10.9661 8.27914 10.9661H3C1.89543 10.9661 1 11.8615 1 12.9661V28.9661C1 30.0707 1.89543 30.9661 3 30.9661H4.21418C4.8928 30.9661 5.37434 31.6276 5.16579 32.2734L4.79467 33.4225C4.77177 33.4934 4.81483 33.5687 4.88756 33.5848V33.5848C4.95125 33.599 5.01527 33.5624 5.03532 33.5003L5.63004 31.6588C5.76338 31.2459 6.14776 30.9661 6.58164 30.9661H25.2567C25.6906 30.9661 26.075 31.2459 26.2083 31.6588L26.8867 33.7592C26.9064 33.8203 26.9694 33.8564 27.0321 33.8424V33.8424C27.1037 33.8265 27.146 33.7525 27.1235 33.6827L26.6684 32.2734C26.4598 31.6276 26.9414 30.9661 27.62 30.9661H29C30.1046 30.9661 31 30.0706 31 28.9661V12.9661C31 11.8615 30.1046 10.9661 29 10.9661H24.477C24.1627 10.9661 23.8711 10.8142 23.6579 10.5832C23.039 9.91277 22.1854 9.33605 21.1663 8.89597C20.6986 8.694 20.4101 8.20121 20.516 7.70287L21.6998 2.13274C21.7147 2.06228 21.6671 1.99381 21.5958 1.98338V1.98338C21.5307 1.97386 21.4694 2.01653 21.4557 2.08088L20.3181 7.43372C20.1961 8.00787 19.6082 8.35083 19.0333 8.23204C18.199 8.0596 17.3061 7.96621 16.3781 7.96621C15.7504 7.96621 15.1389 8.00893 14.5506 8.08993C14.155 8.1444 13.7562 7.9824 13.5321 7.65187L9.0591 1.05418C9.02509 1.004 8.95968 0.985959 8.90475 1.01159V1.01159C8.83591 1.04372 8.81216 1.12981 8.85479 1.19269L12.8063 7.0212ZM16.3779 9.25582C17.4608 9.25582 18.4816 9.42037 19.3786 9.71128C20.2547 9.99543 19.962 10.9661 19.041 10.9661H13.7149C12.7938 10.9661 12.5012 9.99543 13.3773 9.71128C14.2743 9.42037 15.2951 9.25582 16.3779 9.25582Z"/>
</mask>
<path fill-rule="evenodd" clip-rule="evenodd" d="M12.8063 7.0212C13.2044 7.60835 12.8798 8.41434 12.2114 8.65195C10.9165 9.1123 9.83905 9.78064 9.09821 10.5833C8.88503 10.8143 8.59344 10.9661 8.27914 10.9661H3C1.89543 10.9661 1 11.8615 1 12.9661V28.9661C1 30.0707 1.89543 30.9661 3 30.9661H4.21418C4.8928 30.9661 5.37434 31.6276 5.16579 32.2734L4.79467 33.4225C4.77177 33.4934 4.81483 33.5687 4.88756 33.5848V33.5848C4.95125 33.599 5.01527 33.5624 5.03532 33.5003L5.63004 31.6588C5.76338 31.2459 6.14776 30.9661 6.58164 30.9661H25.2567C25.6906 30.9661 26.075 31.2459 26.2083 31.6588L26.8867 33.7592C26.9064 33.8203 26.9694 33.8564 27.0321 33.8424V33.8424C27.1037 33.8265 27.146 33.7525 27.1235 33.6827L26.6684 32.2734C26.4598 31.6276 26.9414 30.9661 27.62 30.9661H29C30.1046 30.9661 31 30.0706 31 28.9661V12.9661C31 11.8615 30.1046 10.9661 29 10.9661H24.477C24.1627 10.9661 23.8711 10.8142 23.6579 10.5832C23.039 9.91277 22.1854 9.33605 21.1663 8.89597C20.6986 8.694 20.4101 8.20121 20.516 7.70287L21.6998 2.13274C21.7147 2.06228 21.6671 1.99381 21.5958 1.98338V1.98338C21.5307 1.97386 21.4694 2.01653 21.4557 2.08088L20.3181 7.43372C20.1961 8.00787 19.6082 8.35083 19.0333 8.23204C18.199 8.0596 17.3061 7.96621 16.3781 7.96621C15.7504 7.96621 15.1389 8.00893 14.5506 8.08993C14.155 8.1444 13.7562 7.9824 13.5321 7.65187L9.0591 1.05418C9.02509 1.004 8.95968 0.985959 8.90475 1.01159V1.01159C8.83591 1.04372 8.81216 1.12981 8.85479 1.19269L12.8063 7.0212ZM16.3779 9.25582C17.4608 9.25582 18.4816 9.42037 19.3786 9.71128C20.2547 9.99543 19.962 10.9661 19.041 10.9661H13.7149C12.7938 10.9661 12.5012 9.99543 13.3773 9.71128C14.2743 9.42037 15.2951 9.25582 16.3779 9.25582Z" fill="#F51548"/>
<path d="M8.85479 1.19269L9.06172 1.0524L8.85479 1.19269ZM9.0591 1.05418L9.26603 0.913886L9.0591 1.05418ZM20.3181 7.43372L20.0736 7.38175L20.3181 7.43372ZM21.4557 2.08088L21.7003 2.13285L21.4557 2.08088ZM21.6998 2.13274L21.9443 2.18471L21.6998 2.13274ZM21.1663 8.89597L21.0672 9.12549L21.1663 8.89597ZM26.6684 32.2734L26.4305 32.3502L26.6684 32.2734ZM5.63004 31.6588L5.86794 31.7356L5.63004 31.6588ZM5.03532 33.5003L5.27322 33.5771L5.03532 33.5003ZM23.6579 10.5832L23.4742 10.7528L23.6579 10.5832ZM4.79467 33.4225L4.55677 33.3457L4.79467 33.4225ZM5.16579 32.2734L4.92789 32.1966L5.16579 32.2734ZM27.1235 33.6827L27.3614 33.6058L27.1235 33.6827ZM14.5506 8.08993L14.5165 7.84227L14.5506 8.08993ZM13.5321 7.65187L13.739 7.51158L13.5321 7.65187ZM26.8867 33.7592L27.1246 33.6823L26.8867 33.7592ZM9.09821 10.5833L8.91449 10.4138L9.09821 10.5833ZM9.28192 10.7529C9.98908 9.98669 11.0287 9.33772 12.2952 8.88751L12.1277 8.41639C10.8042 8.88688 9.68902 9.57458 8.91449 10.4138L9.28192 10.7529ZM3 11.2161H8.27914V10.7161H3V11.2161ZM1.25 12.9661C1.25 11.9996 2.0335 11.2161 3 11.2161V10.7161C1.75736 10.7161 0.75 11.7234 0.75 12.9661H1.25ZM1.25 28.9661V12.9661H0.75V28.9661H1.25ZM3 30.7161C2.0335 30.7161 1.25 29.9326 1.25 28.9661H0.75C0.75 30.2087 1.75736 31.2161 3 31.2161V30.7161ZM4.21418 30.7161H3V31.2161H4.21418V30.7161ZM5.03257 33.4994L5.40369 32.3502L4.92789 32.1966L4.55677 33.3457L5.03257 33.4994ZM5.39214 31.5819L4.79742 33.4234L5.27322 33.5771L5.86794 31.7356L5.39214 31.5819ZM25.2567 30.7161H6.58164V31.2161H25.2567V30.7161ZM27.1246 33.6823L26.4462 31.5819L25.9704 31.7356L26.6488 33.836L27.1246 33.6823ZM26.4305 32.3502L26.8856 33.7595L27.3614 33.6058L26.9063 32.1966L26.4305 32.3502ZM29 30.7161H27.62V31.2161H29V30.7161ZM30.75 28.9661C30.75 29.9326 29.9665 30.7161 29 30.7161V31.2161C30.2426 31.2161 31.25 30.2087 31.25 28.9661H30.75ZM30.75 12.9661V28.9661H31.25V12.9661H30.75ZM29 11.2161C29.9665 11.2161 30.75 11.9996 30.75 12.9661H31.25C31.25 11.7234 30.2426 10.7161 29 10.7161V11.2161ZM24.477 11.2161H29V10.7161H24.477V11.2161ZM21.0672 9.12549C22.0613 9.55477 22.8838 10.1131 23.4742 10.7528L23.8416 10.4137C23.1943 9.71241 22.3095 9.11732 21.2654 8.66646L21.0672 9.12549ZM21.4552 2.08077L20.2714 7.6509L20.7605 7.75484L21.9443 2.18471L21.4552 2.08077ZM20.5627 7.48569L21.7003 2.13285L21.2112 2.02891L20.0736 7.38175L20.5627 7.48569ZM16.3781 8.21621C17.2895 8.21621 18.1653 8.30794 18.9827 8.47686L19.0839 7.98721C18.2326 7.81127 17.3228 7.71621 16.3781 7.71621V8.21621ZM14.5847 8.33759C15.1616 8.25816 15.7617 8.21621 16.3781 8.21621V7.71621C15.7391 7.71621 15.1161 7.75969 14.5165 7.84227L14.5847 8.33759ZM8.85218 1.19446L13.3252 7.79216L13.739 7.51158L9.26603 0.913886L8.85218 1.19446ZM13.0132 6.88091L9.06172 1.0524L8.64786 1.33298L12.5994 7.16149L13.0132 6.88091ZM19.4557 9.47348C18.5326 9.17409 17.4857 9.00582 16.3779 9.00582V9.50582C17.4359 9.50582 18.4306 9.66665 19.3014 9.94909L19.4557 9.47348ZM13.7149 11.2161H19.041V10.7161H13.7149V11.2161ZM16.3779 9.00582C15.2702 9.00582 14.2233 9.17409 13.3002 9.47348L13.4544 9.94909C14.3253 9.66665 15.3199 9.50582 16.3779 9.50582V9.00582ZM19.3014 9.94909C19.4772 10.0061 19.5689 10.0888 19.6126 10.1592C19.6554 10.2281 19.6641 10.3031 19.6432 10.3771C19.6014 10.5246 19.4156 10.7161 19.041 10.7161V11.2161C19.5874 11.2161 20.0085 10.9222 20.1242 10.5134C20.1821 10.3092 20.1572 10.0882 20.0373 9.89527C19.9183 9.70373 19.718 9.55854 19.4557 9.47348L19.3014 9.94909ZM8.79902 0.78505C8.59075 0.882253 8.51888 1.14274 8.64786 1.33298L9.06172 1.0524C9.10544 1.11689 9.08108 1.20519 9.01048 1.23814L8.79902 0.78505ZM9.26603 0.913886C9.16312 0.76209 8.96521 0.707492 8.79902 0.78505L9.01048 1.23814C8.95414 1.26443 8.88706 1.24592 8.85218 1.19446L9.26603 0.913886ZM20.0736 7.38175C19.9832 7.80714 19.5388 8.08121 19.0839 7.98721L18.9827 8.47686C19.6775 8.62045 20.409 8.2086 20.5627 7.48569L20.0736 7.38175ZM21.632 1.73602C21.4364 1.70741 21.2523 1.83559 21.2112 2.02891L21.7003 2.13285C21.6865 2.19747 21.625 2.24031 21.5596 2.23075L21.632 1.73602ZM21.9443 2.18471C21.9893 1.97303 21.8461 1.76734 21.632 1.73602L21.5596 2.23075C21.488 2.22028 21.4402 2.15153 21.4552 2.08077L21.9443 2.18471ZM21.2654 8.66646C20.8944 8.50627 20.6821 8.12379 20.7605 7.75484L20.2714 7.6509C20.138 8.27863 20.5027 8.88174 21.0672 9.12549L21.2654 8.66646ZM26.9063 32.1966C26.7499 31.7122 27.111 31.2161 27.62 31.2161V30.7161C26.7717 30.7161 26.1698 31.543 26.4305 32.3502L26.9063 32.1966ZM25.2567 31.2161C25.5821 31.2161 25.8704 31.4259 25.9704 31.7356L26.4462 31.5819C26.2795 31.0658 25.7991 30.7161 25.2567 30.7161V31.2161ZM5.86794 31.7356C5.96795 31.4259 6.25623 31.2161 6.58164 31.2161V30.7161C6.03929 30.7161 5.55881 31.0658 5.39214 31.5819L5.86794 31.7356ZM4.8333 33.8289C5.02294 33.871 5.21352 33.762 5.27322 33.5771L4.79742 33.4234C4.81701 33.3628 4.87957 33.327 4.94181 33.3408L4.8333 33.8289ZM24.477 10.7161C24.245 10.7161 24.0167 10.6034 23.8416 10.4137L23.4742 10.7528C23.7254 11.025 24.0804 11.2161 24.477 11.2161V10.7161ZM4.55677 33.3457C4.4886 33.5568 4.61678 33.7807 4.8333 33.8289L4.94181 33.3408C5.01288 33.3566 5.05495 33.4301 5.03257 33.4994L4.55677 33.3457ZM13.7149 10.7161C13.3402 10.7161 13.1545 10.5246 13.1127 10.3771C13.0917 10.3031 13.1004 10.2281 13.1433 10.1592C13.187 10.0888 13.2786 10.0061 13.4544 9.94909L13.3002 9.47348C13.0379 9.55854 12.8376 9.70373 12.7186 9.89527C12.5987 10.0882 12.5738 10.3092 12.6316 10.5134C12.7474 10.9222 13.1685 11.2161 13.7149 11.2161V10.7161ZM4.21418 31.2161C4.72315 31.2161 5.0843 31.7122 4.92789 32.1966L5.40369 32.3502C5.66438 31.543 5.06246 30.7161 4.21418 30.7161V31.2161ZM27.0863 34.0865C27.3017 34.0386 27.4292 33.8158 27.3614 33.6058L26.8856 33.7595C26.8629 33.6891 26.9056 33.6144 26.9778 33.5984L27.0863 34.0865ZM14.5165 7.84227C14.2078 7.88477 13.9057 7.75744 13.739 7.51158L13.3252 7.79216C13.6067 8.20737 14.1022 8.40403 14.5847 8.33759L14.5165 7.84227ZM12.2952 8.88751C13.0947 8.60328 13.5164 7.62301 13.0132 6.88091L12.5994 7.16149C12.8924 7.59369 12.6649 8.2254 12.1277 8.41639L12.2952 8.88751ZM26.6488 33.836C26.7081 34.0199 26.8977 34.1284 27.0863 34.0865L26.9778 33.5984C27.0411 33.5843 27.1046 33.6207 27.1246 33.6823L26.6488 33.836ZM8.91449 10.4138C8.73944 10.6034 8.51115 10.7161 8.27914 10.7161V11.2161C8.67573 11.2161 9.03063 11.0251 9.28192 10.7529L8.91449 10.4138Z" fill="#F51548" mask="url(#path-2-outside-1_110_378)"/>
<rect x="3.5" y="13.5" width="25" height="15" rx="1.5" fill="#808B8E" stroke="#6D7F86"/>
<path d="M24.875 22C24.875 23.0317 24.0354 23.9994 22.601 24.7166C21.174 25.4301 19.1939 25.875 17 25.875C14.8061 25.875 12.826 25.4301 11.399 24.7166C9.96462 23.9994 9.125 23.0317 9.125 22C9.125 20.9683 9.96462 20.0006 11.399 19.2834C12.826 18.5699 14.8061 18.125 17 18.125C19.1939 18.125 21.174 18.5699 22.601 19.2834C24.0354 20.0006 24.875 20.9683 24.875 22Z" fill="#FEFEFF" stroke="black" stroke-width="0.25"/>
<ellipse cx="17.5" cy="23.0327" rx="3.5" ry="3" fill="#3E6B7D"/>
<path d="M19 23.5327C19 24.3611 18.3284 25.0327 17.5 25.0327C16.6716 25.0327 16 24.3611 16 23.5327C16 22.7043 16.6716 22.0327 17.5 22.0327C18.3284 22.0327 19 22.7043 19 23.5327Z" fill="black"/>
</svg>
