<svg width="93" height="34" viewBox="0 0 93 34" fill="none" xmlns="http://www.w3.org/2000/svg">
<path d="M1.79688 17.2024H3.25781L6.98438 26.4758L10.7031 17.2024H12.1719L7.54688 28.5774H6.40625L1.79688 17.2024ZM1.32031 17.2024H2.60938L2.82031 24.1399V28.5774H1.32031V17.2024ZM11.3516 17.2024H12.6406V28.5774H11.1406V24.1399L11.3516 17.2024ZM18.5781 28.7336C17.9896 28.7336 17.4557 28.6347 16.9766 28.4368C16.5026 28.2336 16.0938 27.9498 15.75 27.5852C15.4115 27.2206 15.151 26.7883 14.9688 26.2883C14.7865 25.7883 14.6953 25.2415 14.6953 24.6477V24.3196C14.6953 23.6321 14.7969 23.0201 15 22.4836C15.2031 21.942 15.4792 21.4836 15.8281 21.1086C16.1771 20.7336 16.5729 20.4498 17.0156 20.2571C17.4583 20.0644 17.9167 19.968 18.3906 19.968C18.9948 19.968 19.5156 20.0722 19.9531 20.2805C20.3958 20.4889 20.7578 20.7805 21.0391 21.1555C21.3203 21.5253 21.5286 21.9628 21.6641 22.468C21.7995 22.968 21.8672 23.5149 21.8672 24.1086V24.7571H15.5547V23.5774H20.4219V23.468C20.401 23.093 20.3229 22.7284 20.1875 22.3743C20.0573 22.0201 19.849 21.7284 19.5625 21.4993C19.276 21.2701 18.8854 21.1555 18.3906 21.1555C18.0625 21.1555 17.7604 21.2258 17.4844 21.3665C17.2083 21.5019 16.9714 21.705 16.7734 21.9758C16.5755 22.2467 16.4219 22.5774 16.3125 22.968C16.2031 23.3586 16.1484 23.8092 16.1484 24.3196V24.6477C16.1484 25.0487 16.2031 25.4264 16.3125 25.7805C16.4271 26.1295 16.5911 26.4368 16.8047 26.7024C17.0234 26.968 17.2865 27.1764 17.5938 27.3274C17.9062 27.4784 18.2604 27.554 18.6562 27.554C19.1667 27.554 19.599 27.4498 19.9531 27.2415C20.3073 27.0331 20.6172 26.7545 20.8828 26.4055L21.7578 27.1008C21.5755 27.3769 21.3438 27.6399 21.0625 27.8899C20.7812 28.1399 20.4349 28.343 20.0234 28.4993C19.6172 28.6555 19.1354 28.7336 18.5781 28.7336ZM27.9766 17.2024V28.5774H26.4922V17.2024H27.9766ZM31.6328 17.2024V18.4368H22.8438V17.2024H31.6328ZM37.5234 26.6243V20.1243H38.9766V28.5774H37.5938L37.5234 26.6243ZM37.7969 24.843L38.3984 24.8274C38.3984 25.3899 38.3385 25.9107 38.2188 26.3899C38.1042 26.8639 37.9167 27.2753 37.6562 27.6243C37.3958 27.9732 37.0547 28.2467 36.6328 28.4446C36.2109 28.6373 35.6979 28.7336 35.0938 28.7336C34.6823 28.7336 34.3047 28.6737 33.9609 28.554C33.6224 28.4342 33.3307 28.2493 33.0859 27.9993C32.8411 27.7493 32.651 27.4237 32.5156 27.0227C32.3854 26.6217 32.3203 26.1399 32.3203 25.5774V20.1243H33.7656V25.593C33.7656 25.9732 33.8073 26.2883 33.8906 26.5383C33.9792 26.7831 34.0964 26.9784 34.2422 27.1243C34.3932 27.2649 34.5599 27.3639 34.7422 27.4211C34.9297 27.4784 35.1224 27.5071 35.3203 27.5071C35.9349 27.5071 36.4219 27.3899 36.7812 27.1555C37.1406 26.9159 37.3984 26.5956 37.5547 26.1946C37.7161 25.7883 37.7969 25.3378 37.7969 24.843ZM41.1719 16.5774H42.625V26.9368L42.5 28.5774H41.1719V16.5774ZM48.3359 24.2805V24.4446C48.3359 25.0592 48.263 25.6295 48.1172 26.1555C47.9714 26.6764 47.7578 27.1295 47.4766 27.5149C47.1953 27.9003 46.8516 28.1998 46.4453 28.4133C46.0391 28.6269 45.5729 28.7336 45.0469 28.7336C44.5104 28.7336 44.0391 28.6425 43.6328 28.4602C43.2318 28.2727 42.8932 28.0045 42.6172 27.6555C42.3411 27.3066 42.1198 26.8847 41.9531 26.3899C41.7917 25.8951 41.6797 25.3378 41.6172 24.718V23.9993C41.6797 23.3743 41.7917 22.8144 41.9531 22.3196C42.1198 21.8248 42.3411 21.4029 42.6172 21.054C42.8932 20.6998 43.2318 20.4316 43.6328 20.2493C44.0339 20.0618 44.5 19.968 45.0312 19.968C45.5625 19.968 46.0339 20.0722 46.4453 20.2805C46.8568 20.4836 47.2005 20.7753 47.4766 21.1555C47.7578 21.5357 47.9714 21.9915 48.1172 22.5227C48.263 23.0487 48.3359 23.6347 48.3359 24.2805ZM46.8828 24.4446V24.2805C46.8828 23.8586 46.8438 23.4628 46.7656 23.093C46.6875 22.718 46.5625 22.3899 46.3906 22.1086C46.2188 21.8222 45.9922 21.5982 45.7109 21.4368C45.4297 21.2701 45.0833 21.1868 44.6719 21.1868C44.3073 21.1868 43.9896 21.2493 43.7188 21.3743C43.4531 21.4993 43.2266 21.6685 43.0391 21.8821C42.8516 22.0904 42.6979 22.33 42.5781 22.6008C42.4635 22.8665 42.3776 23.1425 42.3203 23.429V25.3118C42.4036 25.6764 42.5391 26.0279 42.7266 26.3665C42.9193 26.6998 43.1745 26.9732 43.4922 27.1868C43.8151 27.4003 44.2135 27.5071 44.6875 27.5071C45.0781 27.5071 45.4115 27.429 45.6875 27.2727C45.9688 27.1112 46.1953 26.8899 46.3672 26.6086C46.5443 26.3274 46.6745 26.0019 46.7578 25.6321C46.8411 25.2623 46.8828 24.8665 46.8828 24.4446ZM53.6719 28.7336C53.0833 28.7336 52.5495 28.6347 52.0703 28.4368C51.5964 28.2336 51.1875 27.9498 50.8438 27.5852C50.5052 27.2206 50.2448 26.7883 50.0625 26.2883C49.8802 25.7883 49.7891 25.2415 49.7891 24.6477V24.3196C49.7891 23.6321 49.8906 23.0201 50.0938 22.4836C50.2969 21.942 50.5729 21.4836 50.9219 21.1086C51.2708 20.7336 51.6667 20.4498 52.1094 20.2571C52.5521 20.0644 53.0104 19.968 53.4844 19.968C54.0885 19.968 54.6094 20.0722 55.0469 20.2805C55.4896 20.4889 55.8516 20.7805 56.1328 21.1555C56.4141 21.5253 56.6224 21.9628 56.7578 22.468C56.8932 22.968 56.9609 23.5149 56.9609 24.1086V24.7571H50.6484V23.5774H55.5156V23.468C55.4948 23.093 55.4167 22.7284 55.2812 22.3743C55.151 22.0201 54.9427 21.7284 54.6562 21.4993C54.3698 21.2701 53.9792 21.1555 53.4844 21.1555C53.1562 21.1555 52.8542 21.2258 52.5781 21.3665C52.3021 21.5019 52.0651 21.705 51.8672 21.9758C51.6693 22.2467 51.5156 22.5774 51.4062 22.968C51.2969 23.3586 51.2422 23.8092 51.2422 24.3196V24.6477C51.2422 25.0487 51.2969 25.4264 51.4062 25.7805C51.5208 26.1295 51.6849 26.4368 51.8984 26.7024C52.1172 26.968 52.3802 27.1764 52.6875 27.3274C53 27.4784 53.3542 27.554 53.75 27.554C54.2604 27.554 54.6927 27.4498 55.0469 27.2415C55.401 27.0331 55.7109 26.7545 55.9766 26.4055L56.8516 27.1008C56.6693 27.3769 56.4375 27.6399 56.1562 27.8899C55.875 28.1399 55.5286 28.343 55.1172 28.4993C54.7109 28.6555 54.2292 28.7336 53.6719 28.7336Z" fill="#FEFEFF"/>
<mask id="path-2-outside-1_23_517" maskUnits="userSpaceOnUse" x="61" y="-0.422607" width="32" height="35" fill="black">
<rect fill="white" x="61" y="-0.422607" width="32" height="35"/>
<path fill-rule="evenodd" clip-rule="evenodd" d="M73.8063 6.59859C74.2044 7.18574 73.8798 7.99173 73.2114 8.22934C71.9165 8.68969 70.8391 9.35803 70.0982 10.1607C69.885 10.3917 69.5934 10.5435 69.2791 10.5435H64C62.8954 10.5435 62 11.4389 62 12.5435V28.5435C62 29.648 62.8954 30.5435 64 30.5435H65.2142C65.8928 30.5435 66.3743 31.205 66.1658 31.8508L65.7947 32.9999C65.7718 33.0708 65.8148 33.1461 65.8876 33.1622V33.1622C65.9513 33.1764 66.0153 33.1398 66.0353 33.0777L66.63 31.2362C66.7634 30.8233 67.1478 30.5435 67.5816 30.5435H86.2567C86.6906 30.5435 87.075 30.8233 87.2083 31.2362L87.8867 33.3366C87.9064 33.3977 87.9694 33.4337 88.0321 33.4198V33.4198C88.1037 33.4039 88.146 33.3299 88.1235 33.2601L87.6684 31.8508C87.4598 31.205 87.9414 30.5435 88.62 30.5435H90C91.1046 30.5435 92 29.648 92 28.5435V12.5435C92 11.4389 91.1046 10.5435 90 10.5435H85.477C85.1627 10.5435 84.8711 10.3916 84.6579 10.1606C84.039 9.49016 83.1854 8.91344 82.1663 8.47336C81.6986 8.27139 81.4101 7.7786 81.516 7.28027L82.6998 1.71014C82.7147 1.63967 82.6671 1.5712 82.5958 1.56078V1.56078C82.5307 1.55125 82.4694 1.59392 82.4557 1.65827L81.3181 7.01111C81.1961 7.58526 80.6082 7.92822 80.0333 7.80943C79.199 7.63699 78.3061 7.5436 77.3781 7.5436C76.7504 7.5436 76.1389 7.58632 75.5506 7.66732C75.155 7.72179 74.7562 7.55979 74.5321 7.22926L70.0591 0.631568C70.0251 0.581397 69.9597 0.563352 69.9047 0.588986V0.588986C69.8359 0.621113 69.8122 0.707207 69.8548 0.770085L73.8063 6.59859ZM77.3779 8.83321C78.4608 8.83321 79.4816 8.99776 80.3786 9.28867C81.2547 9.57282 80.962 10.5435 80.041 10.5435H74.7149C73.7938 10.5435 73.5012 9.57282 74.3773 9.28867C75.2743 8.99776 76.2951 8.83321 77.3779 8.83321Z"/>
</mask>
<path fill-rule="evenodd" clip-rule="evenodd" d="M73.8063 6.59859C74.2044 7.18574 73.8798 7.99173 73.2114 8.22934C71.9165 8.68969 70.8391 9.35803 70.0982 10.1607C69.885 10.3917 69.5934 10.5435 69.2791 10.5435H64C62.8954 10.5435 62 11.4389 62 12.5435V28.5435C62 29.648 62.8954 30.5435 64 30.5435H65.2142C65.8928 30.5435 66.3743 31.205 66.1658 31.8508L65.7947 32.9999C65.7718 33.0708 65.8148 33.1461 65.8876 33.1622V33.1622C65.9513 33.1764 66.0153 33.1398 66.0353 33.0777L66.63 31.2362C66.7634 30.8233 67.1478 30.5435 67.5816 30.5435H86.2567C86.6906 30.5435 87.075 30.8233 87.2083 31.2362L87.8867 33.3366C87.9064 33.3977 87.9694 33.4337 88.0321 33.4198V33.4198C88.1037 33.4039 88.146 33.3299 88.1235 33.2601L87.6684 31.8508C87.4598 31.205 87.9414 30.5435 88.62 30.5435H90C91.1046 30.5435 92 29.648 92 28.5435V12.5435C92 11.4389 91.1046 10.5435 90 10.5435H85.477C85.1627 10.5435 84.8711 10.3916 84.6579 10.1606C84.039 9.49016 83.1854 8.91344 82.1663 8.47336C81.6986 8.27139 81.4101 7.7786 81.516 7.28027L82.6998 1.71014C82.7147 1.63967 82.6671 1.5712 82.5958 1.56078V1.56078C82.5307 1.55125 82.4694 1.59392 82.4557 1.65827L81.3181 7.01111C81.1961 7.58526 80.6082 7.92822 80.0333 7.80943C79.199 7.63699 78.3061 7.5436 77.3781 7.5436C76.7504 7.5436 76.1389 7.58632 75.5506 7.66732C75.155 7.72179 74.7562 7.55979 74.5321 7.22926L70.0591 0.631568C70.0251 0.581397 69.9597 0.563352 69.9047 0.588986V0.588986C69.8359 0.621113 69.8122 0.707207 69.8548 0.770085L73.8063 6.59859ZM77.3779 8.83321C78.4608 8.83321 79.4816 8.99776 80.3786 9.28867C81.2547 9.57282 80.962 10.5435 80.041 10.5435H74.7149C73.7938 10.5435 73.5012 9.57282 74.3773 9.28867C75.2743 8.99776 76.2951 8.83321 77.3779 8.83321Z" fill="#F51548"/>
<path d="M69.8548 0.770085L70.0617 0.629796L69.8548 0.770085ZM70.0591 0.631568L70.266 0.491278L70.0591 0.631568ZM81.3181 7.01111L81.0736 6.95914L81.3181 7.01111ZM82.4557 1.65827L82.7003 1.71024L82.4557 1.65827ZM82.6998 1.71014L82.9443 1.76211L82.6998 1.71014ZM82.1663 8.47336L82.0672 8.70288L82.1663 8.47336ZM87.6684 31.8508L87.4305 31.9276L87.6684 31.8508ZM66.63 31.2362L66.8679 31.313L66.63 31.2362ZM66.0353 33.0777L66.2732 33.1545L66.0353 33.0777ZM84.6579 10.1606L84.4742 10.3302L84.6579 10.1606ZM65.7947 32.9999L65.5568 32.9231L65.7947 32.9999ZM66.1658 31.8508L65.9279 31.774L66.1658 31.8508ZM88.1235 33.2601L88.3614 33.1832L88.1235 33.2601ZM75.5506 7.66732L75.5165 7.41966L75.5506 7.66732ZM74.5321 7.22926L74.739 7.08897L74.5321 7.22926ZM87.8867 33.3366L88.1246 33.2597L87.8867 33.3366ZM70.0982 10.1607L69.9145 9.99115L70.0982 10.1607ZM70.2819 10.3303C70.9891 9.56408 72.0287 8.91511 73.2952 8.4649L73.1277 7.99378C71.8042 8.46427 70.689 9.15198 69.9145 9.99115L70.2819 10.3303ZM64 10.7935H69.2791V10.2935H64V10.7935ZM62.25 12.5435C62.25 11.577 63.0335 10.7935 64 10.7935V10.2935C62.7574 10.2935 61.75 11.3008 61.75 12.5435H62.25ZM62.25 28.5435V12.5435H61.75V28.5435H62.25ZM64 30.2935C63.0335 30.2935 62.25 29.51 62.25 28.5435H61.75C61.75 29.7861 62.7574 30.7935 64 30.7935V30.2935ZM65.2142 30.2935H64V30.7935H65.2142V30.2935ZM66.0326 33.0768L66.4037 31.9276L65.9279 31.774L65.5568 32.9231L66.0326 33.0768ZM66.3921 31.1593L65.7974 33.0008L66.2732 33.1545L66.8679 31.313L66.3921 31.1593ZM86.2567 30.2935H67.5816V30.7935H86.2567V30.2935ZM88.1246 33.2597L87.4462 31.1593L86.9704 31.313L87.6488 33.4134L88.1246 33.2597ZM87.4305 31.9276L87.8856 33.3369L88.3614 33.1832L87.9063 31.774L87.4305 31.9276ZM90 30.2935H88.62V30.7935H90V30.2935ZM91.75 28.5435C91.75 29.51 90.9665 30.2935 90 30.2935V30.7935C91.2426 30.7935 92.25 29.7861 92.25 28.5435H91.75ZM91.75 12.5435V28.5435H92.25V12.5435H91.75ZM90 10.7935C90.9665 10.7935 91.75 11.577 91.75 12.5435H92.25C92.25 11.3008 91.2426 10.2935 90 10.2935V10.7935ZM85.477 10.7935H90V10.2935H85.477V10.7935ZM82.0672 8.70288C83.0613 9.13216 83.8838 9.69052 84.4742 10.3302L84.8416 9.99106C84.1943 9.2898 83.3095 8.69471 82.2654 8.24385L82.0672 8.70288ZM82.4552 1.65817L81.2714 7.2283L81.7605 7.33224L82.9443 1.76211L82.4552 1.65817ZM81.5627 7.06308L82.7003 1.71024L82.2112 1.6063L81.0736 6.95914L81.5627 7.06308ZM77.3781 7.7936C78.2895 7.7936 79.1653 7.88533 79.9827 8.05426L80.0839 7.5646C79.2326 7.38866 78.3228 7.2936 77.3781 7.2936V7.7936ZM75.5847 7.91498C76.1616 7.83555 76.7617 7.7936 77.3781 7.7936V7.2936C76.7391 7.2936 76.1161 7.33709 75.5165 7.41966L75.5847 7.91498ZM69.8522 0.771857L74.3252 7.36955L74.739 7.08897L70.266 0.491278L69.8522 0.771857ZM74.0132 6.4583L70.0617 0.629796L69.6479 0.910375L73.5994 6.73888L74.0132 6.4583ZM80.4557 9.05087C79.5326 8.75148 78.4857 8.58321 77.3779 8.58321V9.08321C78.4359 9.08321 79.4306 9.24404 80.3014 9.52648L80.4557 9.05087ZM74.7149 10.7935H80.041V10.2935H74.7149V10.7935ZM77.3779 8.58321C76.2702 8.58321 75.2233 8.75148 74.3002 9.05087L74.4544 9.52648C75.3253 9.24404 76.3199 9.08321 77.3779 9.08321V8.58321ZM80.3014 9.52648C80.4772 9.58349 80.5689 9.66619 80.6126 9.73656C80.6554 9.80551 80.6641 9.88051 80.6432 9.95451C80.6014 10.102 80.4156 10.2935 80.041 10.2935V10.7935C80.5874 10.7935 81.0085 10.4996 81.1242 10.0908C81.1821 9.88657 81.1572 9.66563 81.0373 9.47266C80.9183 9.28113 80.718 9.13593 80.4557 9.05087L80.3014 9.52648ZM69.799 0.362443C69.5907 0.459645 69.5189 0.720133 69.6479 0.910375L70.0617 0.629796C70.1054 0.694282 70.0811 0.78258 70.0105 0.815529L69.799 0.362443ZM70.266 0.491278C70.1631 0.339482 69.9652 0.284884 69.799 0.362443L70.0105 0.815529C69.9541 0.841819 69.8871 0.823312 69.8522 0.771857L70.266 0.491278ZM81.0736 6.95914C80.9832 7.38453 80.5388 7.65861 80.0839 7.5646L79.9827 8.05426C80.6775 8.19784 81.409 7.786 81.5627 7.06308L81.0736 6.95914ZM82.632 1.31341C82.4364 1.2848 82.2523 1.41298 82.2112 1.6063L82.7003 1.71024C82.6865 1.77486 82.625 1.81771 82.5596 1.80814L82.632 1.31341ZM82.9443 1.76211C82.9893 1.55042 82.8461 1.34474 82.632 1.31341L82.5596 1.80814C82.488 1.79767 82.4402 1.72892 82.4552 1.65817L82.9443 1.76211ZM82.2654 8.24385C81.8944 8.08366 81.6821 7.70118 81.7605 7.33224L81.2714 7.2283C81.138 7.85602 81.5027 8.45913 82.0672 8.70288L82.2654 8.24385ZM87.9063 31.774C87.7499 31.2896 88.111 30.7935 88.62 30.7935V30.2935C87.7717 30.2935 87.1698 31.1204 87.4305 31.9276L87.9063 31.774ZM86.2567 30.7935C86.5821 30.7935 86.8704 31.0033 86.9704 31.313L87.4462 31.1593C87.2795 30.6432 86.7991 30.2935 86.2567 30.2935V30.7935ZM66.8679 31.313C66.9679 31.0033 67.2562 30.7935 67.5816 30.7935V30.2935C67.0393 30.2935 66.5588 30.6432 66.3921 31.1593L66.8679 31.313ZM65.8333 33.4063C66.0229 33.4484 66.2135 33.3394 66.2732 33.1545L65.7974 33.0008C65.817 32.9401 65.8796 32.9043 65.9418 32.9182L65.8333 33.4063ZM85.477 10.2935C85.245 10.2935 85.0167 10.1807 84.8416 9.99106L84.4742 10.3302C84.7254 10.6024 85.0804 10.7935 85.477 10.7935V10.2935ZM65.5568 32.9231C65.4886 33.1342 65.6168 33.3581 65.8333 33.4063L65.9418 32.9182C66.0129 32.934 66.0549 33.0075 66.0326 33.0768L65.5568 32.9231ZM74.7149 10.2935C74.3402 10.2935 74.1545 10.102 74.1127 9.95451C74.0917 9.88051 74.1004 9.80551 74.1433 9.73656C74.187 9.66619 74.2786 9.58349 74.4544 9.52648L74.3002 9.05087C74.0379 9.13593 73.8376 9.28113 73.7186 9.47266C73.5987 9.66563 73.5738 9.88657 73.6316 10.0907C73.7474 10.4996 74.1685 10.7935 74.7149 10.7935V10.2935ZM65.2142 30.7935C65.7231 30.7935 66.0843 31.2896 65.9279 31.774L66.4037 31.9276C66.6644 31.1204 66.0625 30.2935 65.2142 30.2935V30.7935ZM88.0863 33.6638C88.3017 33.616 88.4292 33.3932 88.3614 33.1832L87.8856 33.3369C87.8629 33.2665 87.9056 33.1918 87.9778 33.1758L88.0863 33.6638ZM75.5165 7.41966C75.2078 7.46217 74.9057 7.33483 74.739 7.08897L74.3252 7.36955C74.6067 7.78476 75.1022 7.98142 75.5847 7.91498L75.5165 7.41966ZM73.2952 8.4649C74.0947 8.18067 74.5164 7.2004 74.0132 6.4583L73.5994 6.73888C73.8924 7.17109 73.6649 7.80279 73.1277 7.99378L73.2952 8.4649ZM87.6488 33.4134C87.7081 33.5973 87.8977 33.7058 88.0863 33.6638L87.9778 33.1758C88.0411 33.1617 88.1046 33.1981 88.1246 33.2597L87.6488 33.4134ZM69.9145 9.99115C69.7394 10.1808 69.5112 10.2935 69.2791 10.2935V10.7935C69.6757 10.7935 70.0306 10.6025 70.2819 10.3303L69.9145 9.99115Z" fill="#F51548" mask="url(#path-2-outside-1_23_517)"/>
<rect x="64.5" y="13.0774" width="25" height="15" rx="1.5" fill="#808B8E" stroke="#6D7F86"/>
<path d="M85.875 21.5774C85.875 22.6091 85.0354 23.5768 83.601 24.294C82.174 25.0075 80.1939 25.4524 78 25.4524C75.8061 25.4524 73.826 25.0075 72.399 24.294C70.9646 23.5768 70.125 22.6091 70.125 21.5774C70.125 20.5457 70.9646 19.578 72.399 18.8608C73.826 18.1473 75.8061 17.7024 78 17.7024C80.1939 17.7024 82.174 18.1473 83.601 18.8608C85.0354 19.578 85.875 20.5457 85.875 21.5774Z" fill="#FEFEFF" stroke="black" stroke-width="0.25"/>
<ellipse cx="78.5" cy="22.6101" rx="3.5" ry="3" fill="#3E6B7D"/>
<path d="M80 23.1101C80 23.9385 79.3284 24.6101 78.5 24.6101C77.6716 24.6101 77 23.9385 77 23.1101C77 22.2817 77.6716 21.6101 78.5 21.6101C79.3284 21.6101 80 22.2817 80 23.1101Z" fill="black"/>
</svg>
