<svg width="95" height="35" viewBox="0 0 95 35" fill="none" xmlns="http://www.w3.org/2000/svg">
<path d="M48.24 29.0388H45.328L45.184 24.8948L45.168 24.2068C45.1467 23.5668 45.136 23.0815 45.136 22.7508C45.136 21.9508 45.168 21.1508 45.232 20.3508L43.712 27.8868H40.912L39.296 20.3508C39.392 21.5988 39.44 22.6975 39.44 23.6468C39.44 24.1908 39.4347 24.6068 39.424 24.8948L39.296 29.0388H36.384L37.2 17.9188H40.88L42.368 25.2948L43.712 17.9188H47.408L48.24 29.0388ZM57.185 24.6388C57.185 24.7028 57.169 25.0228 57.137 25.5988H51.921C51.9957 26.2495 52.177 26.6975 52.465 26.9428C52.7637 27.1775 53.185 27.2948 53.729 27.2948C54.049 27.2948 54.3637 27.2362 54.673 27.1188C54.993 26.9908 55.3397 26.7988 55.713 26.5428L56.865 28.1108C56.417 28.4842 55.905 28.7828 55.329 29.0068C54.753 29.2202 54.129 29.3268 53.457 29.3268C52.0063 29.3268 50.9023 28.9215 50.145 28.1108C49.3983 27.2895 49.025 26.1908 49.025 24.8148C49.025 23.9508 49.1797 23.1722 49.489 22.4788C49.809 21.7855 50.2783 21.2362 50.897 20.8308C51.5157 20.4255 52.2623 20.2228 53.137 20.2228C54.385 20.2228 55.3717 20.6122 56.097 21.3908C56.8223 22.1588 57.185 23.2415 57.185 24.6388ZM54.385 23.8388C54.3743 23.2735 54.2783 22.8362 54.097 22.5268C53.9157 22.2175 53.6117 22.0628 53.185 22.0628C52.7903 22.0628 52.4917 22.2015 52.289 22.4788C52.0863 22.7562 51.9583 23.2415 51.905 23.9348H54.385V23.8388ZM66.284 17.9188L65.98 20.1748H63.356V29.0388H60.396V20.1748H57.612V17.9188H66.284ZM73.8814 29.0388H71.4014L71.2894 28.0308C70.692 28.8948 69.844 29.3268 68.7454 29.3268C67.956 29.3268 67.3587 29.0922 66.9534 28.6228C66.5587 28.1428 66.3614 27.4815 66.3614 26.6388V20.5108H69.2094V26.2708C69.2094 26.6335 69.2627 26.8895 69.3694 27.0388C69.4867 27.1775 69.6574 27.2468 69.8814 27.2468C70.084 27.2468 70.2814 27.1775 70.4734 27.0388C70.676 26.8895 70.8627 26.6762 71.0334 26.3988V20.5108H73.8814V29.0388ZM80.6708 20.2228C81.6841 20.2228 82.4628 20.6228 83.0068 21.4228C83.5508 22.2228 83.8228 23.3428 83.8228 24.7828C83.8228 25.6575 83.6841 26.4415 83.4068 27.1348C83.1401 27.8175 82.7508 28.3562 82.2388 28.7508C81.7268 29.1348 81.1188 29.3268 80.4148 29.3268C79.9454 29.3268 79.5188 29.2308 79.1348 29.0388C78.7614 28.8575 78.4468 28.5962 78.1908 28.2548L78.0788 29.0388H75.5508V17.1508L78.3988 16.8628V21.3428C78.6441 21.0015 78.9694 20.7295 79.3748 20.5268C79.7801 20.3242 80.2121 20.2228 80.6708 20.2228ZM79.5668 27.2788C79.9828 27.2788 80.3028 27.0868 80.5268 26.7028C80.7614 26.3188 80.8788 25.6788 80.8788 24.7828C80.8788 23.8228 80.7721 23.1668 80.5588 22.8148C80.3561 22.4628 80.0628 22.2868 79.6788 22.2868C79.1774 22.2868 78.7508 22.5855 78.3988 23.1828V26.5588C78.6868 27.0388 79.0761 27.2788 79.5668 27.2788ZM92.8413 24.6388C92.8413 24.7028 92.8253 25.0228 92.7933 25.5988H87.5773C87.6519 26.2495 87.8333 26.6975 88.1213 26.9428C88.4199 27.1775 88.8413 27.2948 89.3853 27.2948C89.7053 27.2948 90.0199 27.2362 90.3293 27.1188C90.6493 26.9908 90.9959 26.7988 91.3693 26.5428L92.5213 28.1108C92.0733 28.4842 91.5613 28.7828 90.9853 29.0068C90.4093 29.2202 89.7853 29.3268 89.1133 29.3268C87.6626 29.3268 86.5586 28.9215 85.8013 28.1108C85.0546 27.2895 84.6813 26.1908 84.6813 24.8148C84.6813 23.9508 84.8359 23.1722 85.1453 22.4788C85.4653 21.7855 85.9346 21.2362 86.5533 20.8308C87.1719 20.4255 87.9186 20.2228 88.7933 20.2228C90.0413 20.2228 91.0279 20.6122 91.7533 21.3908C92.4786 22.1588 92.8413 23.2415 92.8413 24.6388ZM90.0413 23.8388C90.0306 23.2735 89.9346 22.8362 89.7533 22.5268C89.5719 22.2175 89.2679 22.0628 88.8413 22.0628C88.4466 22.0628 88.1479 22.2015 87.9453 22.4788C87.7426 22.7562 87.6146 23.2415 87.5613 23.9348H90.0413V23.8388Z" fill="#FEFEFF"/>
<mask id="path-2-outside-1_23_797" maskUnits="userSpaceOnUse" x="0" y="0.0773926" width="32" height="35" fill="black">
<rect fill="white" y="0.0773926" width="32" height="35"/>
<path fill-rule="evenodd" clip-rule="evenodd" d="M12.8063 7.09859C13.2044 7.68574 12.8798 8.49173 12.2114 8.72934C10.9165 9.18969 9.83905 9.85803 9.09821 10.6607C8.88503 10.8917 8.59344 11.0435 8.27914 11.0435H3C1.89543 11.0435 1 11.9389 1 13.0435V29.0435C1 30.148 1.89543 31.0435 3 31.0435H4.21418C4.8928 31.0435 5.37434 31.705 5.16579 32.3508L4.79467 33.4999C4.77177 33.5708 4.81483 33.6461 4.88756 33.6622V33.6622C4.95125 33.6764 5.01527 33.6398 5.03532 33.5777L5.63004 31.7362C5.76338 31.3233 6.14776 31.0435 6.58164 31.0435H25.2567C25.6906 31.0435 26.075 31.3233 26.2083 31.7362L26.8867 33.8366C26.9064 33.8977 26.9694 33.9337 27.0321 33.9198V33.9198C27.1037 33.9039 27.146 33.8299 27.1235 33.7601L26.6684 32.3508C26.4598 31.705 26.9414 31.0435 27.62 31.0435H29C30.1046 31.0435 31 30.148 31 29.0435V13.0435C31 11.9389 30.1046 11.0435 29 11.0435H24.477C24.1627 11.0435 23.8711 10.8916 23.6579 10.6606C23.039 9.99016 22.1854 9.41344 21.1663 8.97336C20.6986 8.77139 20.4101 8.2786 20.516 7.78027L21.6998 2.21014C21.7147 2.13967 21.6671 2.0712 21.5958 2.06078V2.06078C21.5307 2.05125 21.4694 2.09392 21.4557 2.15827L20.3181 7.51111C20.1961 8.08526 19.6082 8.42822 19.0333 8.30943C18.199 8.13699 17.3061 8.0436 16.3781 8.0436C15.7504 8.0436 15.1389 8.08632 14.5506 8.16732C14.155 8.22179 13.7562 8.05979 13.5321 7.72926L9.0591 1.13157C9.02509 1.0814 8.95968 1.06335 8.90475 1.08899V1.08899C8.83591 1.12111 8.81216 1.20721 8.85479 1.27009L12.8063 7.09859ZM16.3779 9.33321C17.4608 9.33321 18.4816 9.49776 19.3786 9.78867C20.2547 10.0728 19.962 11.0435 19.041 11.0435H13.7149C12.7938 11.0435 12.5012 10.0728 13.3773 9.78867C14.2743 9.49776 15.2951 9.33321 16.3779 9.33321Z"/>
</mask>
<path fill-rule="evenodd" clip-rule="evenodd" d="M12.8063 7.09859C13.2044 7.68574 12.8798 8.49173 12.2114 8.72934C10.9165 9.18969 9.83905 9.85803 9.09821 10.6607C8.88503 10.8917 8.59344 11.0435 8.27914 11.0435H3C1.89543 11.0435 1 11.9389 1 13.0435V29.0435C1 30.148 1.89543 31.0435 3 31.0435H4.21418C4.8928 31.0435 5.37434 31.705 5.16579 32.3508L4.79467 33.4999C4.77177 33.5708 4.81483 33.6461 4.88756 33.6622V33.6622C4.95125 33.6764 5.01527 33.6398 5.03532 33.5777L5.63004 31.7362C5.76338 31.3233 6.14776 31.0435 6.58164 31.0435H25.2567C25.6906 31.0435 26.075 31.3233 26.2083 31.7362L26.8867 33.8366C26.9064 33.8977 26.9694 33.9337 27.0321 33.9198V33.9198C27.1037 33.9039 27.146 33.8299 27.1235 33.7601L26.6684 32.3508C26.4598 31.705 26.9414 31.0435 27.62 31.0435H29C30.1046 31.0435 31 30.148 31 29.0435V13.0435C31 11.9389 30.1046 11.0435 29 11.0435H24.477C24.1627 11.0435 23.8711 10.8916 23.6579 10.6606C23.039 9.99016 22.1854 9.41344 21.1663 8.97336C20.6986 8.77139 20.4101 8.2786 20.516 7.78027L21.6998 2.21014C21.7147 2.13967 21.6671 2.0712 21.5958 2.06078V2.06078C21.5307 2.05125 21.4694 2.09392 21.4557 2.15827L20.3181 7.51111C20.1961 8.08526 19.6082 8.42822 19.0333 8.30943C18.199 8.13699 17.3061 8.0436 16.3781 8.0436C15.7504 8.0436 15.1389 8.08632 14.5506 8.16732C14.155 8.22179 13.7562 8.05979 13.5321 7.72926L9.0591 1.13157C9.02509 1.0814 8.95968 1.06335 8.90475 1.08899V1.08899C8.83591 1.12111 8.81216 1.20721 8.85479 1.27009L12.8063 7.09859ZM16.3779 9.33321C17.4608 9.33321 18.4816 9.49776 19.3786 9.78867C20.2547 10.0728 19.962 11.0435 19.041 11.0435H13.7149C12.7938 11.0435 12.5012 10.0728 13.3773 9.78867C14.2743 9.49776 15.2951 9.33321 16.3779 9.33321Z" fill="#F51548"/>
<path d="M8.85479 1.27009L9.06172 1.1298L8.85479 1.27009ZM9.0591 1.13157L9.26603 0.991278L9.0591 1.13157ZM20.3181 7.51111L20.0736 7.45914L20.3181 7.51111ZM21.4557 2.15827L21.7003 2.21024L21.4557 2.15827ZM21.6998 2.21014L21.9443 2.26211L21.6998 2.21014ZM21.1663 8.97336L21.0672 9.20288L21.1663 8.97336ZM26.6684 32.3508L26.4305 32.4276L26.6684 32.3508ZM5.63004 31.7362L5.86794 31.813L5.63004 31.7362ZM5.03532 33.5777L5.27322 33.6545L5.03532 33.5777ZM23.6579 10.6606L23.4742 10.8302L23.6579 10.6606ZM4.79467 33.4999L4.55677 33.4231L4.79467 33.4999ZM5.16579 32.3508L4.92789 32.274L5.16579 32.3508ZM27.1235 33.7601L27.3614 33.6832L27.1235 33.7601ZM14.5506 8.16732L14.5165 7.91966L14.5506 8.16732ZM13.5321 7.72926L13.739 7.58897L13.5321 7.72926ZM26.8867 33.8366L27.1246 33.7597L26.8867 33.8366ZM9.09821 10.6607L8.91449 10.4912L9.09821 10.6607ZM9.28192 10.8303C9.98908 10.0641 11.0287 9.41511 12.2952 8.9649L12.1277 8.49378C10.8042 8.96427 9.68902 9.65198 8.91449 10.4912L9.28192 10.8303ZM3 11.2935H8.27914V10.7935H3V11.2935ZM1.25 13.0435C1.25 12.077 2.0335 11.2935 3 11.2935V10.7935C1.75736 10.7935 0.75 11.8008 0.75 13.0435H1.25ZM1.25 29.0435V13.0435H0.75V29.0435H1.25ZM3 30.7935C2.0335 30.7935 1.25 30.01 1.25 29.0435H0.75C0.75 30.2861 1.75736 31.2935 3 31.2935V30.7935ZM4.21418 30.7935H3V31.2935H4.21418V30.7935ZM5.03257 33.5768L5.40369 32.4276L4.92789 32.274L4.55677 33.4231L5.03257 33.5768ZM5.39214 31.6593L4.79742 33.5008L5.27322 33.6545L5.86794 31.813L5.39214 31.6593ZM25.2567 30.7935H6.58164V31.2935H25.2567V30.7935ZM27.1246 33.7597L26.4462 31.6593L25.9704 31.813L26.6488 33.9134L27.1246 33.7597ZM26.4305 32.4276L26.8856 33.8369L27.3614 33.6832L26.9063 32.274L26.4305 32.4276ZM29 30.7935H27.62V31.2935H29V30.7935ZM30.75 29.0435C30.75 30.01 29.9665 30.7935 29 30.7935V31.2935C30.2426 31.2935 31.25 30.2861 31.25 29.0435H30.75ZM30.75 13.0435V29.0435H31.25V13.0435H30.75ZM29 11.2935C29.9665 11.2935 30.75 12.077 30.75 13.0435H31.25C31.25 11.8008 30.2426 10.7935 29 10.7935V11.2935ZM24.477 11.2935H29V10.7935H24.477V11.2935ZM21.0672 9.20288C22.0613 9.63216 22.8838 10.1905 23.4742 10.8302L23.8416 10.4911C23.1943 9.7898 22.3095 9.19471 21.2654 8.74385L21.0672 9.20288ZM21.4552 2.15817L20.2714 7.7283L20.7605 7.83224L21.9443 2.26211L21.4552 2.15817ZM20.5627 7.56308L21.7003 2.21024L21.2112 2.1063L20.0736 7.45914L20.5627 7.56308ZM16.3781 8.2936C17.2895 8.2936 18.1653 8.38533 18.9827 8.55426L19.0839 8.0646C18.2326 7.88866 17.3228 7.7936 16.3781 7.7936V8.2936ZM14.5847 8.41498C15.1616 8.33555 15.7617 8.2936 16.3781 8.2936V7.7936C15.7391 7.7936 15.1161 7.83709 14.5165 7.91966L14.5847 8.41498ZM8.85218 1.27186L13.3252 7.86955L13.739 7.58897L9.26603 0.991278L8.85218 1.27186ZM13.0132 6.9583L9.06172 1.1298L8.64786 1.41037L12.5994 7.23888L13.0132 6.9583ZM19.4557 9.55087C18.5326 9.25148 17.4857 9.08321 16.3779 9.08321V9.58321C17.4359 9.58321 18.4306 9.74404 19.3014 10.0265L19.4557 9.55087ZM13.7149 11.2935H19.041V10.7935H13.7149V11.2935ZM16.3779 9.08321C15.2702 9.08321 14.2233 9.25148 13.3002 9.55087L13.4544 10.0265C14.3253 9.74404 15.3199 9.58321 16.3779 9.58321V9.08321ZM19.3014 10.0265C19.4772 10.0835 19.5689 10.1662 19.6126 10.2366C19.6554 10.3055 19.6641 10.3805 19.6432 10.4545C19.6014 10.602 19.4156 10.7935 19.041 10.7935V11.2935C19.5874 11.2935 20.0085 10.9996 20.1242 10.5908C20.1821 10.3866 20.1572 10.1656 20.0373 9.97266C19.9183 9.78113 19.718 9.63593 19.4557 9.55087L19.3014 10.0265ZM8.79902 0.862443C8.59075 0.959645 8.51888 1.22013 8.64786 1.41037L9.06172 1.1298C9.10544 1.19428 9.08108 1.28258 9.01048 1.31553L8.79902 0.862443ZM9.26603 0.991278C9.16312 0.839482 8.96521 0.784884 8.79902 0.862443L9.01048 1.31553C8.95414 1.34182 8.88706 1.32331 8.85218 1.27186L9.26603 0.991278ZM20.0736 7.45914C19.9832 7.88453 19.5388 8.15861 19.0839 8.0646L18.9827 8.55426C19.6775 8.69784 20.409 8.286 20.5627 7.56308L20.0736 7.45914ZM21.632 1.81341C21.4364 1.7848 21.2523 1.91298 21.2112 2.1063L21.7003 2.21024C21.6865 2.27486 21.625 2.31771 21.5596 2.30814L21.632 1.81341ZM21.9443 2.26211C21.9893 2.05042 21.8461 1.84474 21.632 1.81341L21.5596 2.30814C21.488 2.29767 21.4402 2.22892 21.4552 2.15817L21.9443 2.26211ZM21.2654 8.74385C20.8944 8.58366 20.6821 8.20118 20.7605 7.83224L20.2714 7.7283C20.138 8.35602 20.5027 8.95913 21.0672 9.20288L21.2654 8.74385ZM26.9063 32.274C26.7499 31.7896 27.111 31.2935 27.62 31.2935V30.7935C26.7717 30.7935 26.1698 31.6204 26.4305 32.4276L26.9063 32.274ZM25.2567 31.2935C25.5821 31.2935 25.8704 31.5033 25.9704 31.813L26.4462 31.6593C26.2795 31.1432 25.7991 30.7935 25.2567 30.7935V31.2935ZM5.86794 31.813C5.96795 31.5033 6.25623 31.2935 6.58164 31.2935V30.7935C6.03929 30.7935 5.55881 31.1432 5.39214 31.6593L5.86794 31.813ZM4.8333 33.9063C5.02294 33.9484 5.21352 33.8394 5.27322 33.6545L4.79742 33.5008C4.81701 33.4402 4.87957 33.4044 4.94181 33.4182L4.8333 33.9063ZM24.477 10.7935C24.245 10.7935 24.0167 10.6807 23.8416 10.4911L23.4742 10.8302C23.7254 11.1024 24.0804 11.2935 24.477 11.2935V10.7935ZM4.55677 33.4231C4.4886 33.6342 4.61678 33.8581 4.8333 33.9063L4.94181 33.4182C5.01288 33.434 5.05495 33.5075 5.03257 33.5768L4.55677 33.4231ZM13.7149 10.7935C13.3402 10.7935 13.1545 10.602 13.1127 10.4545C13.0917 10.3805 13.1004 10.3055 13.1433 10.2366C13.187 10.1662 13.2786 10.0835 13.4544 10.0265L13.3002 9.55087C13.0379 9.63593 12.8376 9.78113 12.7186 9.97266C12.5987 10.1656 12.5738 10.3866 12.6316 10.5907C12.7474 10.9996 13.1685 11.2935 13.7149 11.2935V10.7935ZM4.21418 31.2935C4.72315 31.2935 5.0843 31.7896 4.92789 32.274L5.40369 32.4276C5.66438 31.6204 5.06246 30.7935 4.21418 30.7935V31.2935ZM27.0863 34.1638C27.3017 34.116 27.4292 33.8932 27.3614 33.6832L26.8856 33.8369C26.8629 33.7665 26.9056 33.6918 26.9778 33.6758L27.0863 34.1638ZM14.5165 7.91966C14.2078 7.96217 13.9057 7.83483 13.739 7.58897L13.3252 7.86955C13.6067 8.28476 14.1022 8.48142 14.5847 8.41498L14.5165 7.91966ZM12.2952 8.9649C13.0947 8.68067 13.5164 7.7004 13.0132 6.9583L12.5994 7.23888C12.8924 7.67108 12.6649 8.30279 12.1277 8.49378L12.2952 8.9649ZM26.6488 33.9134C26.7081 34.0973 26.8977 34.2058 27.0863 34.1638L26.9778 33.6758C27.0411 33.6617 27.1046 33.6981 27.1246 33.7597L26.6488 33.9134ZM8.91449 10.4912C8.73944 10.6808 8.51115 10.7935 8.27914 10.7935V11.2935C8.67573 11.2935 9.03063 11.1025 9.28192 10.8303L8.91449 10.4912Z" fill="#F51548" mask="url(#path-2-outside-1_23_797)"/>
<rect x="3.5" y="13.5774" width="25" height="15" rx="1.5" fill="#808B8E" stroke="#6D7F86"/>
<path d="M24.875 22.0774C24.875 23.1091 24.0354 24.0768 22.601 24.794C21.174 25.5075 19.1939 25.9524 17 25.9524C14.8061 25.9524 12.826 25.5075 11.399 24.794C9.96462 24.0768 9.125 23.1091 9.125 22.0774C9.125 21.0457 9.96462 20.078 11.399 19.3608C12.826 18.6473 14.8061 18.2024 17 18.2024C19.1939 18.2024 21.174 18.6473 22.601 19.3608C24.0354 20.078 24.875 21.0457 24.875 22.0774Z" fill="#FEFEFF" stroke="black" stroke-width="0.25"/>
<ellipse cx="17.5" cy="23.1101" rx="3.5" ry="3" fill="#3E6B7D"/>
<path d="M19 23.6101C19 24.4385 18.3284 25.1101 17.5 25.1101C16.6716 25.1101 16 24.4385 16 23.6101C16 22.7817 16.6716 22.1101 17.5 22.1101C18.3284 22.1101 19 22.7817 19 23.6101Z" fill="black"/>
</svg>
