<svg width="23" height="18" viewBox="0 0 23 18" fill="none" xmlns="http://www.w3.org/2000/svg">
<path fill-rule="evenodd" clip-rule="evenodd" d="M13.1824 11.5456L9.03373 16.923C8.80222 17.2231 8.33406 17.1666 8.18064 16.82L7.07429 14.3207C7.02632 14.2123 7.0184 14.0905 7.05195 13.9768L7.7694 11.5456L2.00652 11.5456C0.541489 11.5456 -0.426378 10.0224 0.195896 8.69613L3.35586 1.96105C3.68528 1.25892 4.39092 0.810551 5.16648 0.810551L13.1941 0.810551C14.2987 0.810551 15.1941 1.70598 15.1941 2.81055L15.1941 9.54563C15.1941 10.6502 14.2987 11.5456 13.1941 11.5456H13.1824ZM22.1186 11.5456H17.0271V0.810551H22.1186L22.1186 11.5456Z" fill="black"/>
</svg>
