<svg width="23" height="17" viewBox="0 0 23 17" fill="none" xmlns="http://www.w3.org/2000/svg">
<path fill-rule="evenodd" clip-rule="evenodd" d="M13.1783 10.7351L9.02964 16.1125C8.79813 16.4126 8.32997 16.356 8.17656 16.0094L7.0702 13.5102C7.02223 13.4018 7.01431 13.2799 7.04786 13.1662L7.76532 10.7351L2.00243 10.7351C0.537399 10.7351 -0.430468 9.21188 0.191807 7.88558L3.35177 1.1505C3.68119 0.448378 4.38683 3.9053e-06 5.16239 3.9053e-06L13.1901 3.9053e-06C14.2946 3.9053e-06 15.1901 0.895434 15.1901 2L15.1901 8.73508C15.1901 9.83965 14.2946 10.7351 13.1901 10.7351H13.1783ZM22.1145 10.7351H17.023V3.9053e-06H22.1145L22.1145 10.7351Z" fill="#F51548"/>
</svg>
